<?xml version="1.0" encoding="utf-8"?>
<!-- Generator: Adobe Illustrator 23.0.0, SVG Export Plug-In . SVG Version: 6.00 Build 0)  -->
<svg version="1.1" id="图层_1" xmlns="http://www.w3.org/2000/svg" xmlns:xlink="http://www.w3.org/1999/xlink" x="0px" y="0px"
	 viewBox="0 0 300 300" style="enable-background:new 0 0 300 300;" xml:space="preserve">
<style type="text/css">
	.st0{fill:#508CF0;}
	.st1{fill:#64788C;}
</style>
<path class="st0" d="M76.3,86.7h114.1v32h14.8V78.1c0-3.5-2.8-6.3-6.3-6.3H67.8c-3.5,0-6.3,2.8-6.3,6.3v143.8c0,3.5,2.8,6.3,6.3,6.3
	H174v-14.8H76.3V86.7z"/>
<path class="st1" d="M129.9,100h-11.8c-0.7,0-1.3,0.4-1.5,1.1l-24.8,71.9c-0.1,0.2-0.1,0.3-0.1,0.5c0,0.9,0.7,1.6,1.6,1.6H104
	c0.7,0,1.3-0.4,1.5-1.1l6.4-18.5h38.3l-18.8-54.4C131.2,100.4,130.6,100,129.9,100z M132.3,144.5h-16.7l8.4-24.2
	C124,120.4,132.3,144.5,132.3,144.5z M231.8,153.1h-26.6V135c0-0.9-0.7-1.6-1.6-1.6h-10.9c-0.9,0-1.6,0.7-1.6,1.6v18.2h-26.6
	c-2.6,0-4.7,2.1-4.7,4.7v34.4c0,2.6,2.1,4.7,4.7,4.7h26.6v29.7c0,0.9,0.7,1.6,1.6,1.6h10.9c0.9,0,1.6-0.7,1.6-1.6v-29.7h26.6
	c2.6,0,4.7-2.1,4.7-4.7v-34.4C236.5,155.2,234.4,153.1,231.8,153.1z M191.2,182.8H174v-15.6h17.2V182.8z M222.4,182.8h-17.2v-15.6
	h17.2V182.8z"/>
</svg>
