<svg id="svg" xmlns="http://www.w3.org/2000/svg" xmlns:xlink="http://www.w3.org/1999/xlink" width="400" height="321.6"
    viewBox="93, 57, 216, 210">
    <g id="svgg">
        <path id="path0"
            d="M205.700 57.809 C 193.287 58.042,184.499 60.453,175.089 66.207 C 173.890 66.941,173.852 66.949,171.089 67.086 C 154.233 67.923,141.695 73.245,129.316 84.819 C 127.051 86.937,94.125 123.610,94.112 124.030 C 94.105 124.223,97.799 129.447,102.320 135.640 L 110.540 146.900 110.662 150.200 C 110.985 158.946,114.423 166.204,120.949 171.916 C 124.515 175.037,131.600 179.074,131.600 177.984 C 131.600 177.596,133.392 174.539,134.660 172.764 C 142.316 162.045,155.029 154.602,166.605 154.061 C 177.547 153.549,185.917 156.407,190.878 162.347 C 192.293 164.041,192.136 164.116,193.275 161.200 C 198.294 148.346,197.780 133.390,191.873 120.428 C 189.485 115.186,194.788 120.619,199.551 128.294 C 214.421 152.253,212.663 184.711,194.502 221.500 C 188.005 234.663,179.796 247.619,171.503 257.801 C 168.772 261.155,168.552 261.681,169.333 263.002 C 170.170 264.419,170.529 264.371,177.645 261.882 C 199.257 254.321,225.165 244.239,241.350 237.089 C 300.524 210.951,318.523 179.648,297.879 138.779 C 296.092 135.242,295.740 134.756,295.027 134.839 L 294.500 134.900 294.378 139.400 C 293.810 160.274,280.323 181.335,255.700 199.800 C 245.404 207.520,242.517 208.685,247.305 203.186 C 280.550 165.004,286.907 128.612,264.303 105.885 C 257.373 98.918,254.633 98.135,256.478 103.647 C 261.978 120.088,259.681 138.041,249.907 155.000 C 245.323 162.954,244.256 163.543,245.468 157.451 C 251.700 126.140,242.976 102.465,217.416 81.320 C 215.940 80.099,214.484 78.875,214.182 78.600 L 213.632 78.100 216.612 68.000 C 218.251 62.445,219.594 57.833,219.596 57.750 C 219.600 57.589,216.766 57.601,205.700 57.809 M164.897 91.371 C 164.015 92.225,152.563 102.675,145.700 108.890 C 143.280 111.081,141.060 113.092,140.766 113.359 C 139.712 114.316,139.815 113.624,141.244 110.147 C 142.023 108.251,143.580 104.439,144.703 101.675 C 148.383 92.621,148.593 92.466,158.700 91.310 C 161.890 90.945,164.769 90.636,165.097 90.623 L 165.694 90.600 164.897 91.371 "
            class="jp-icon3" stroke="none" fill="#616161" fill-rule="evenodd"></path>
    </g>
</svg>