<?xml version="1.0" encoding="UTF-8" standalone="no"?>
<svg
   xmlns:dc="http://purl.org/dc/elements/1.1/"
   xmlns:cc="http://creativecommons.org/ns#"
   xmlns:rdf="http://www.w3.org/1999/02/22-rdf-syntax-ns#"
   xmlns:svg="http://www.w3.org/2000/svg"
   xmlns="http://www.w3.org/2000/svg"
   xmlns:sodipodi="http://sodipodi.sourceforge.net/DTD/sodipodi-0.dtd"
   xmlns:inkscape="http://www.inkscape.org/namespaces/inkscape"
   viewBox="0 0 32 32"
   version="1.1"
   id="svg15"
   sodipodi:docname="search.svg"
   inkscape:version="1.0.1 (3bc2e813f5, 2020-09-07)">
  <metadata
     id="metadata19">
    <rdf:RDF>
      <cc:Work
         rdf:about="">
        <dc:format>image/svg+xml</dc:format>
        <dc:type
           rdf:resource="http://purl.org/dc/dcmitype/StillImage" />
      </cc:Work>
    </rdf:RDF>
  </metadata>
  <sodipodi:namedview
     pagecolor="#ffffff"
     bordercolor="#666666"
     borderopacity="1"
     objecttolerance="10"
     gridtolerance="10"
     guidetolerance="10"
     inkscape:pageopacity="0"
     inkscape:pageshadow="2"
     inkscape:window-width="1920"
     inkscape:window-height="1027"
     id="namedview17"
     showgrid="false"
     inkscape:zoom="26.875"
     inkscape:cx="16"
     inkscape:cy="16"
     inkscape:window-x="-8"
     inkscape:window-y="-8"
     inkscape:window-maximized="1"
     inkscape:current-layer="svg15" />
  <defs
     id="defs4">
    <style
       id="style2">.cls-1{fill:#007fad;}</style>
  </defs>
  <title
     id="title6" />
  <g
     data-name="Layer 3"
     id="Layer_3"
     style="fill:#007fad;fill-opacity:1">
    <path
       class="cls-1"
       d="M11,22A10,10,0,1,1,21,12,10,10,0,0,1,11,22ZM11,4a8,8,0,1,0,8,8A8,8,0,0,0,11,4Z"
       id="path8"
       style="fill:#007fad;fill-opacity:1" />
    <path
       class="cls-1"
       d="M28,29.74a3,3,0,0,1-1.93-.7L19.94,23.9a3,3,0,0,1,3.86-4.6l6.13,5.14A3,3,0,0,1,28,29.74ZM21.87,20.6h-.09a1,1,0,0,0-.55,1.77l6.13,5.14a1,1,0,0,0,1.41-.12,1,1,0,0,0,.23-.73,1,1,0,0,0-.36-.68l-6.13-5.15A1,1,0,0,0,21.87,20.6Z"
       id="path10"
       style="fill:#007fad;fill-opacity:1" />
    <path
       class="cls-1"
       d="M20,21a1,1,0,0,1-.64-.23L17,18.82a1,1,0,0,1,1.28-1.54l2.34,1.95a1,1,0,0,1,.13,1.41A1,1,0,0,1,20,21Z"
       id="path12"
       style="fill:#007fad;fill-opacity:1" />
  </g>
</svg>
