<?xml version="1.0" encoding="utf-8"?>
<!-- Generator: Adobe Illustrator 23.0.0, SVG Export Plug-In . SVG Version: 6.00 Build 0)  -->
<svg version="1.1" id="图层_1" xmlns="http://www.w3.org/2000/svg" xmlns:xlink="http://www.w3.org/1999/xlink" x="0px" y="0px"
	 viewBox="0 0 204 204" style="enable-background:new 0 0 204 204;" xml:space="preserve">
<path d="M28.3,38.7h114.1v32h14.8V30.1c0-3.5-2.8-6.3-6.3-6.3H19.8c-3.5,0-6.3,2.8-6.3,6.3v143.8c0,3.5,2.8,6.3,6.3,6.3H126v-14.8
	H28.3V38.7z"/>
<path d="M81.9,52H70.1c-0.7,0-1.3,0.4-1.5,1.1l-24.8,71.9c-0.1,0.2-0.1,0.3-0.1,0.5c0,0.9,0.7,1.6,1.6,1.6H56c0.7,0,1.2-0.4,1.5-1.1
	l6.4-18.5h38.3L83.4,53.1C83.2,52.4,82.6,52,81.9,52z M84.3,96.5H67.6L76,72.4C76,72.4,84.3,96.5,84.3,96.5z M183.8,105.1h-26.6V87
	c0-0.9-0.7-1.6-1.6-1.6h-10.9c-0.9,0-1.6,0.7-1.6,1.6v18.2h-26.6c-2.6,0-4.7,2.1-4.7,4.7v34.4c0,2.6,2.1,4.7,4.7,4.7h26.6v29.7
	c0,0.9,0.7,1.6,1.6,1.6h10.9c0.9,0,1.6-0.7,1.6-1.6v-29.7h26.6c2.6,0,4.7-2.1,4.7-4.7v-34.4C188.5,107.2,186.4,105.1,183.8,105.1z
	 M143.2,134.8H126v-15.6h17.2V134.8z M174.4,134.8h-17.2v-15.6h17.2V134.8z"/>
</svg>
